<?xml version="1.0" encoding="UTF-8"?>
<svg id="Layer_2" data-name="Layer 2" xmlns="http://www.w3.org/2000/svg" viewBox="0 0 346.49 247.24">
  <defs>
    <style>
      .cls-1, .cls-2 {
        fill: #fff;
      }

      .cls-2 {
        stroke: #fff;
        stroke-miterlimit: 10;
        stroke-width: 3px;
      }
    </style>
  </defs>
  <g id="Layer_3" data-name="Layer 3">
    <g>
      <path class="cls-2" d="M27.17,185.66h4.47l18.16,40.38h-4.47l-7.24-16.06H20.72l-7.24,16.06h-4.47l18.16-40.38Zm2.26,4.98l-6.96,15.39h13.86l-6.9-15.39Z"/>
      <path class="cls-2" d="M90.58,216.43c-3.68,6.11-10.35,10.18-17.99,10.18-11.6,0-21.1-9.39-21.1-20.93s9.5-20.48,21.1-20.48c7.58,0,14.2,4.07,17.88,9.95h-5.15c-3.05-3.56-7.58-5.83-12.73-5.83-9.33,0-16.8,7.47-16.8,16.35,0,9.33,7.47,16.8,16.8,16.8,5.21,0,9.85-2.32,12.84-6.05h5.15Z"/>
      <path class="cls-2" d="M98.69,185.66h4.13v40.38h-4.13v-40.38Z"/>
      <path class="cls-2" d="M146.7,195.1l-13.52,30.94h-4.92l-13.58-30.94v30.94h-4.12v-40.38h4.69l15.44,35.86,15.44-35.86h4.7v40.38h-4.13v-30.94Z"/>
      <path class="cls-2" d="M158.55,185.66h23.42v3.96h-19.29v11.31h18.16v3.96h-18.16v17.2h19.29v3.96h-23.42v-40.38Z"/>
      <path class="cls-2" d="M202.83,189.61h-13.69v-3.96h31.45v3.96h-13.63v36.43h-4.13v-36.43Z"/>
      <path class="cls-2" d="M253.87,193.75c-.87-2.71-3.63-4.84-6.74-4.84-4.5,0-7.43,3.23-7.43,6.8s2.48,5.18,7.43,6.74c7.66,2.42,13.36,5.42,13.36,12.62s-5.94,11.93-13.36,11.93c-6.86,0-12.45-4.61-13.25-11h4.38c.8,3.97,4.44,6.8,8.88,6.8,5.01,0,8.99-2.94,8.99-7.72,0-3.81-2.48-5.87-8.99-7.89-7.66-2.36-11.81-5.25-11.81-11.47s4.72-11,11.81-11c5.76,0,10.42,3.75,11.35,9.04h-4.61Z"/>
      <path class="cls-2" d="M282.05,185.34h4.55l18.49,41.14h-4.55l-7.38-16.37h-17.69l-7.37,16.37h-4.55l18.5-41.14Zm2.3,5.07l-7.09,15.67h14.12l-7.03-15.67Z"/>
      <path class="cls-2" d="M328.25,193.75c-.87-2.71-3.63-4.84-6.74-4.84-4.5,0-7.44,3.23-7.44,6.8s2.48,5.18,7.44,6.74c7.66,2.42,13.36,5.42,13.36,12.62s-5.93,11.93-13.36,11.93c-6.86,0-12.45-4.61-13.25-11h4.38c.81,3.97,4.44,6.8,8.88,6.8,5.01,0,8.98-2.94,8.98-7.72,0-3.81-2.47-5.87-8.98-7.89-7.66-2.36-11.81-5.25-11.81-11.47s4.72-11,11.81-11c5.76,0,10.43,3.75,11.35,9.04h-4.61Z"/>
      <g>
        <path class="cls-1" d="M0,246.41l3.4-10.74h1.25l3.61,10.74h-1.33l-1.02-3.25H2.19l-.96,3.25H0Zm2.53-4.41h3l-.91-2.97c-.28-.91-.49-1.66-.62-2.23-.11,.69-.28,1.37-.48,2.05l-.98,3.15Z"/>
        <path class="cls-1" d="M9.16,246.41v-10.74h3.9c.82,0,1.42,.1,1.81,.3,.39,.2,.71,.53,.96,1,.25,.47,.37,1.01,.37,1.62,0,.81-.21,1.47-.63,1.97-.42,.5-1.04,.82-1.84,.96,.33,.2,.58,.39,.75,.6,.35,.41,.65,.87,.92,1.37l1.54,2.92h-1.46l-1.17-2.23c-.46-.87-.8-1.46-1.03-1.77-.23-.3-.46-.51-.67-.61-.22-.1-.52-.16-.91-.16h-1.35v4.77h-1.16Zm1.16-6h2.5c.55,0,.96-.07,1.25-.2,.28-.13,.51-.34,.67-.62s.25-.61,.25-.99c0-.54-.16-.97-.48-1.28-.32-.31-.79-.46-1.41-.46h-2.78v3.55Z"/>
        <path class="cls-1" d="M24.76,245.26c.54,.45,1.04,.79,1.49,1l-.34,.99c-.64-.28-1.27-.72-1.88-1.32-.65,.45-1.37,.67-2.16,.67-1.29,0-2.33-.56-3.13-1.69-.72-1.02-1.08-2.3-1.08-3.85,0-1.16,.19-2.17,.58-3.02,.38-.85,.89-1.49,1.52-1.91,.63-.42,1.33-.63,2.12-.63s1.48,.22,2.12,.65c.64,.44,1.14,1.08,1.52,1.91,.38,.84,.56,1.83,.56,2.97,0,.89-.12,1.7-.35,2.42-.23,.72-.55,1.33-.97,1.82Zm-2.57-1.82c.67,.22,1.22,.57,1.66,1.03,.69-.77,1.03-1.92,1.03-3.45,0-.92-.13-1.71-.39-2.35-.26-.64-.62-1.13-1.08-1.47s-.97-.5-1.51-.5c-.87,0-1.59,.37-2.17,1.1-.58,.73-.86,1.81-.86,3.25s.29,2.49,.87,3.23c.58,.74,1.3,1.1,2.16,1.1,.41,0,.8-.1,1.17-.29-.36-.29-.75-.49-1.16-.62l.29-1.03Z"/>
        <path class="cls-1" d="M33.37,235.67h1.16v6.2c0,1.04-.1,1.89-.3,2.56-.2,.67-.57,1.19-1.11,1.58-.53,.39-1.21,.58-2.04,.58-1.16,0-2.03-.35-2.61-1.04-.58-.69-.87-1.92-.87-3.68v-6.2h1.16v6.2c0,.97,.08,1.67,.23,2.11,.15,.43,.4,.77,.74,.99,.34,.23,.76,.34,1.26,.34,.83,0,1.43-.23,1.8-.7,.37-.47,.56-1.38,.56-2.74v-6.2Z"/>
        <path class="cls-1" d="M36.72,246.41v-10.74h1.16v10.74h-1.16Z"/>
        <path class="cls-1" d="M42.17,246.41v-9.47h-2.9v-1.27h6.98v1.27h-2.91v9.47h-1.16Z"/>
        <path class="cls-1" d="M47.45,246.41v-10.74h6.37v1.27h-5.2v3.28h4.87v1.27h-4.87v3.65h5.41v1.27h-6.57Z"/>
        <path class="cls-1" d="M61.88,242.64l1.17,.36c-.26,1.21-.71,2.11-1.36,2.7-.65,.59-1.43,.89-2.36,.89-.82,0-1.51-.2-2.09-.6-.58-.4-1.05-1.04-1.42-1.92s-.55-1.92-.55-3.11,.18-2.18,.55-3c.37-.82,.87-1.44,1.5-1.85,.63-.42,1.33-.63,2.11-.63,.85,0,1.58,.26,2.19,.79,.61,.53,1.04,1.3,1.28,2.33l-1.14,.33c-.39-1.49-1.18-2.23-2.36-2.23-.59,0-1.09,.15-1.53,.45-.43,.3-.77,.77-1.03,1.4-.26,.63-.38,1.44-.38,2.41,0,1.47,.26,2.58,.78,3.31,.52,.74,1.21,1.1,2.07,1.1,.63,0,1.18-.23,1.64-.68,.46-.45,.77-1.14,.93-2.05Z"/>
        <path class="cls-1" d="M66.77,246.41v-9.47h-2.9v-1.27h6.98v1.27h-2.92v9.47h-1.16Z"/>
        <path class="cls-1" d="M77.78,235.67h1.16v6.2c0,1.04-.1,1.89-.3,2.56-.2,.67-.57,1.19-1.1,1.58-.53,.39-1.21,.58-2.04,.58-1.16,0-2.03-.35-2.61-1.04-.58-.69-.87-1.92-.87-3.68v-6.2h1.16v6.2c0,.97,.08,1.67,.23,2.11,.15,.43,.4,.77,.74,.99,.34,.23,.76,.34,1.26,.34,.83,0,1.43-.23,1.81-.7,.37-.47,.56-1.38,.56-2.74v-6.2Z"/>
        <path class="cls-1" d="M80.9,246.41v-10.74h3.9c.82,0,1.42,.1,1.81,.3,.39,.2,.71,.53,.95,1,.25,.47,.37,1.01,.37,1.62,0,.81-.21,1.47-.63,1.97-.42,.5-1.04,.82-1.84,.96,.33,.2,.58,.39,.75,.6,.35,.41,.65,.87,.92,1.37l1.54,2.92h-1.46l-1.17-2.23c-.46-.87-.8-1.46-1.03-1.77-.23-.3-.45-.51-.67-.61-.22-.1-.52-.16-.91-.16h-1.35v4.77h-1.16Zm1.16-6h2.5c.55,0,.96-.07,1.25-.2,.28-.13,.51-.34,.67-.62s.25-.61,.25-.99c0-.54-.16-.97-.48-1.28-.32-.31-.79-.46-1.41-.46h-2.78v3.55Z"/>
        <path class="cls-1" d="M88.81,246.41l3.4-10.74h1.25l3.61,10.74h-1.33l-1.02-3.25h-3.7l-.96,3.25h-1.23Zm2.53-4.41h3l-.92-2.97c-.28-.91-.49-1.66-.62-2.23-.11,.69-.27,1.37-.48,2.05l-.98,3.15Z"/>
        <path class="cls-1" d="M106.98,242.64l1.17,.36c-.26,1.21-.71,2.11-1.36,2.7-.65,.59-1.43,.89-2.36,.89-.82,0-1.51-.2-2.09-.6-.58-.4-1.05-1.04-1.42-1.92-.37-.88-.55-1.92-.55-3.11s.19-2.18,.55-3c.37-.82,.87-1.44,1.5-1.85,.63-.42,1.34-.63,2.11-.63,.85,0,1.58,.26,2.19,.79,.61,.53,1.04,1.3,1.28,2.33l-1.14,.33c-.39-1.49-1.18-2.23-2.35-2.23-.59,0-1.1,.15-1.53,.45-.43,.3-.77,.77-1.03,1.4-.26,.63-.38,1.44-.38,2.41,0,1.47,.26,2.58,.78,3.31,.52,.74,1.21,1.1,2.06,1.1,.63,0,1.18-.23,1.64-.68,.46-.45,.77-1.14,.93-2.05Z"/>
        <path class="cls-1" d="M109.28,241.18c0-1.83,.4-3.24,1.21-4.22,.8-.98,1.81-1.47,3.01-1.47,.78,0,1.48,.22,2.12,.66,.64,.44,1.15,1.08,1.52,1.92,.37,.84,.56,1.83,.56,2.99,0,1.59-.36,2.89-1.08,3.89-.8,1.1-1.84,1.66-3.13,1.66s-2.34-.57-3.13-1.7c-.72-1.03-1.08-2.26-1.08-3.71Zm1.2,.02c0,1.32,.29,2.35,.88,3.08,.58,.73,1.29,1.1,2.13,1.1s1.57-.37,2.15-1.11c.58-.74,.87-1.82,.87-3.25,0-.92-.15-1.75-.45-2.48-.23-.56-.58-1-1.04-1.34-.46-.33-.96-.5-1.51-.5-.88,0-1.6,.37-2.17,1.1-.57,.73-.85,1.87-.85,3.4Z"/>
        <path class="cls-1" d="M119.14,246.41v-10.74h1.19l4.63,8.45v-8.45h1.11v10.74h-1.19l-4.62-8.45v8.45h-1.12Z"/>
        <path class="cls-1" d="M127.66,242.95l1.1-.12c.06,.59,.19,1.05,.4,1.38,.21,.33,.5,.59,.89,.79,.39,.2,.82,.3,1.3,.3,.69,0,1.23-.17,1.62-.51,.38-.34,.58-.78,.58-1.32,0-.32-.07-.59-.21-.83-.14-.24-.35-.43-.63-.58-.28-.15-.89-.36-1.82-.64-.83-.25-1.42-.49-1.77-.74-.35-.25-.62-.56-.82-.95-.2-.38-.29-.82-.29-1.3,0-.87,.28-1.58,.84-2.13,.56-.55,1.32-.83,2.27-.83,.65,0,1.23,.13,1.72,.39,.49,.26,.87,.63,1.14,1.11,.27,.48,.42,1.05,.44,1.71l-1.12,.1c-.06-.7-.27-1.22-.63-1.55-.36-.34-.86-.51-1.51-.51s-1.16,.15-1.51,.44c-.35,.3-.52,.68-.52,1.15,0,.43,.13,.77,.38,1.01,.25,.24,.82,.48,1.71,.73,.87,.24,1.48,.45,1.83,.62,.54,.28,.94,.64,1.22,1.08,.27,.45,.41,.98,.41,1.6s-.14,1.17-.43,1.68c-.29,.51-.68,.89-1.18,1.15-.5,.26-1.09,.4-1.79,.4-1.09,0-1.96-.33-2.6-.98s-.98-1.54-1.01-2.66Z"/>
        <path class="cls-1" d="M138.52,246.41v-9.47h-2.9v-1.27h6.98v1.27h-2.92v9.47h-1.16Z"/>
        <path class="cls-1" d="M143.77,246.41v-10.74h3.9c.82,0,1.42,.1,1.81,.3,.39,.2,.71,.53,.95,1,.25,.47,.37,1.01,.37,1.62,0,.81-.21,1.47-.63,1.97-.42,.5-1.04,.82-1.84,.96,.33,.2,.58,.39,.75,.6,.35,.41,.65,.87,.92,1.37l1.54,2.92h-1.46l-1.17-2.23c-.46-.87-.8-1.46-1.03-1.77-.23-.3-.45-.51-.67-.61-.22-.1-.52-.16-.91-.16h-1.35v4.77h-1.16Zm1.16-6h2.5c.55,0,.96-.07,1.25-.2,.28-.13,.51-.34,.67-.62s.25-.61,.25-.99c0-.54-.16-.97-.48-1.28-.32-.31-.79-.46-1.41-.46h-2.78v3.55Z"/>
        <path class="cls-1" d="M158.4,235.67h1.16v6.2c0,1.04-.1,1.89-.3,2.56-.2,.67-.57,1.19-1.1,1.58-.53,.39-1.21,.58-2.04,.58-1.16,0-2.03-.35-2.61-1.04-.58-.69-.87-1.92-.87-3.68v-6.2h1.16v6.2c0,.97,.08,1.67,.23,2.11,.15,.43,.4,.77,.74,.99,.34,.23,.76,.34,1.26,.34,.83,0,1.43-.23,1.81-.7,.37-.47,.56-1.38,.56-2.74v-6.2Z"/>
        <path class="cls-1" d="M167.78,242.64l1.17,.36c-.26,1.21-.71,2.11-1.36,2.7-.65,.59-1.43,.89-2.36,.89-.81,0-1.51-.2-2.09-.6-.58-.4-1.05-1.04-1.42-1.92-.37-.88-.55-1.92-.55-3.11s.18-2.18,.55-3c.37-.82,.87-1.44,1.5-1.85,.63-.42,1.33-.63,2.11-.63,.85,0,1.58,.26,2.19,.79,.61,.53,1.04,1.3,1.28,2.33l-1.14,.33c-.39-1.49-1.18-2.23-2.35-2.23-.59,0-1.1,.15-1.53,.45-.43,.3-.77,.77-1.03,1.4-.26,.63-.38,1.44-.38,2.41,0,1.47,.26,2.58,.78,3.31,.52,.74,1.21,1.1,2.07,1.1,.63,0,1.18-.23,1.64-.68,.46-.45,.77-1.14,.93-2.05Z"/>
        <path class="cls-1" d="M176.65,242.64l1.17,.36c-.26,1.21-.71,2.11-1.36,2.7-.65,.59-1.43,.89-2.36,.89-.81,0-1.51-.2-2.09-.6-.58-.4-1.05-1.04-1.42-1.92s-.55-1.92-.55-3.11,.18-2.18,.55-3c.37-.82,.87-1.44,1.5-1.85,.63-.42,1.33-.63,2.11-.63,.85,0,1.58,.26,2.19,.79,.61,.53,1.04,1.3,1.28,2.33l-1.14,.33c-.39-1.49-1.18-2.23-2.35-2.23-.59,0-1.1,.15-1.53,.45-.43,.3-.77,.77-1.03,1.4-.26,.63-.38,1.44-.38,2.41,0,1.47,.26,2.58,.78,3.31,.52,.74,1.21,1.1,2.07,1.1,.63,0,1.18-.23,1.64-.68,.46-.45,.77-1.14,.93-2.05Z"/>
        <path class="cls-1" d="M179.5,246.41v-10.74h1.16v10.74h-1.16Z"/>
        <path class="cls-1" d="M182.37,241.18c0-1.83,.4-3.24,1.21-4.22,.8-.98,1.81-1.47,3.01-1.47,.78,0,1.48,.22,2.12,.66,.64,.44,1.15,1.08,1.52,1.92,.37,.84,.56,1.83,.56,2.99,0,1.59-.36,2.89-1.08,3.89-.8,1.1-1.84,1.66-3.13,1.66s-2.34-.57-3.13-1.7c-.72-1.03-1.08-2.26-1.08-3.71Zm1.2,.02c0,1.32,.29,2.35,.88,3.08,.58,.73,1.29,1.1,2.13,1.1s1.57-.37,2.15-1.11c.58-.74,.87-1.82,.87-3.25,0-.92-.15-1.75-.45-2.48-.23-.56-.58-1-1.04-1.34-.46-.33-.96-.5-1.51-.5-.88,0-1.6,.37-2.17,1.1-.57,.73-.85,1.87-.85,3.4Zm1.98-6.26l.8-2.05h1.41l-1.32,2.05h-.89Z"/>
        <path class="cls-1" d="M192.24,246.41v-10.74h1.19l4.63,8.45v-8.45h1.11v10.74h-1.19l-4.62-8.45v8.45h-1.12Z"/>
        <path class="cls-1" d="M204.01,243.19v-1.33h3.32v1.33h-3.32Z"/>
        <path class="cls-1" d="M212.31,246.41v-10.74h1.17v10.74h-1.17Z"/>
        <path class="cls-1" d="M215.47,246.41v-10.74h1.19l4.63,8.45v-8.45h1.11v10.74h-1.19l-4.62-8.45v8.45h-1.12Z"/>
        <path class="cls-1" d="M228.53,242.2v-1.27h3.73s0,3.98,0,3.98c-.57,.56-1.16,.97-1.77,1.26-.61,.28-1.24,.42-1.88,.42-.86,0-1.63-.21-2.3-.65-.67-.43-1.21-1.06-1.6-1.88-.39-.83-.59-1.82-.59-2.98s.2-2.19,.59-3.06c.4-.87,.91-1.51,1.55-1.92,.64-.41,1.4-.62,2.27-.62,.64,0,1.21,.12,1.69,.36,.48,.24,.88,.58,1.19,1.02,.31,.44,.55,1.04,.7,1.81l-1.05,.35c-.14-.61-.32-1.06-.54-1.36-.21-.3-.5-.54-.85-.71s-.75-.26-1.19-.26c-.64,0-1.19,.16-1.65,.47-.46,.31-.83,.79-1.11,1.45-.28,.65-.42,1.45-.42,2.4,0,1.44,.3,2.51,.9,3.23s1.38,1.07,2.34,1.07c.46,0,.93-.11,1.41-.33,.48-.22,.86-.48,1.15-.78v-2h-2.58Z"/>
        <path class="cls-1" d="M233.98,246.41v-10.74h6.36v1.27h-5.2v3.28h4.87v1.27h-4.87v3.65h5.4v1.27h-6.57Z"/>
        <path class="cls-1" d="M242.12,246.41v-10.74h1.19l4.63,8.45v-8.45h1.11v10.74h-1.19l-4.62-8.45v8.45h-1.12Z"/>
        <path class="cls-1" d="M251.26,246.41v-10.74h1.16v10.74h-1.16Z"/>
        <path class="cls-1" d="M254.48,246.41v-10.74h6.36v1.27h-5.2v3.28h4.87v1.27h-4.87v3.65h5.41v1.27h-6.57Z"/>
        <path class="cls-1" d="M262.65,246.41v-10.74h3.9c.82,0,1.42,.1,1.81,.3,.39,.2,.71,.53,.96,1,.25,.47,.37,1.01,.37,1.62,0,.81-.21,1.47-.63,1.97-.42,.5-1.04,.82-1.84,.96,.33,.2,.58,.39,.75,.6,.35,.41,.65,.87,.91,1.37l1.54,2.92h-1.46l-1.17-2.23c-.46-.87-.8-1.46-1.03-1.77-.23-.3-.45-.51-.67-.61-.22-.1-.52-.16-.91-.16h-1.35v4.77h-1.16Zm1.16-6h2.5c.55,0,.96-.07,1.25-.2,.28-.13,.51-.34,.67-.62s.25-.61,.25-.99c0-.54-.16-.97-.48-1.28-.32-.31-.79-.46-1.41-.46h-2.78v3.55Z"/>
        <path class="cls-1" d="M271.68,234.94l.8-2.05h1.41l-1.32,2.05h-.89Zm.08,11.47v-10.74h1.16v10.74h-1.16Z"/>
        <path class="cls-1" d="M273.99,246.41l3.39-10.74h1.25l3.61,10.74h-1.33l-1.03-3.25h-3.7l-.96,3.25h-1.23Zm2.53-4.41h3l-.92-2.97c-.28-.91-.49-1.66-.62-2.23-.11,.69-.28,1.37-.48,2.05l-.98,3.15Z"/>
        <path class="cls-1" d="M285.87,246.41v-10.74h1.75l2.09,7.6,.42,1.59c.1-.4,.26-.97,.47-1.72l2.11-7.47h1.57v10.74h-1.12v-8.98l-2.57,8.98h-1.05l-2.55-9.13v9.13h-1.12Z"/>
        <path class="cls-1" d="M296.18,246.41v-10.74h6.36v1.27h-5.2v3.28h4.87v1.27h-4.87v3.65h5.41v1.27h-6.57Z"/>
        <path class="cls-1" d="M306.61,246.41v-9.47h-2.9v-1.27h6.98v1.27h-2.91v9.47h-1.16Z"/>
        <path class="cls-1" d="M310.91,246.41l3.4-10.74h1.25l3.61,10.74h-1.33l-1.02-3.25h-3.7l-.96,3.25h-1.23Zm2.53-4.41h3l-.92-2.97c-.28-.91-.49-1.66-.62-2.23-.11,.69-.27,1.37-.48,2.05l-.98,3.15Zm.36-7.06l.8-2.05h1.41l-1.32,2.05h-.89Z"/>
        <path class="cls-1" d="M320,246.41v-10.74h1.16v9.47h4.34v1.27h-5.5Z"/>
        <path class="cls-1" d="M327.14,246.41v-10.74h1.16v10.74h-1.16Z"/>
        <path class="cls-1" d="M336.58,242.64l1.17,.36c-.26,1.21-.71,2.11-1.36,2.7-.65,.59-1.43,.89-2.36,.89-.82,0-1.51-.2-2.09-.6-.58-.4-1.05-1.04-1.42-1.92-.37-.88-.55-1.92-.55-3.11s.18-2.18,.55-3c.37-.82,.87-1.44,1.5-1.85,.63-.42,1.33-.63,2.11-.63,.85,0,1.58,.26,2.19,.79,.61,.53,1.04,1.3,1.28,2.33l-1.14,.33c-.39-1.49-1.18-2.23-2.35-2.23-.59,0-1.1,.15-1.53,.45-.43,.3-.77,.77-1.03,1.4-.26,.63-.38,1.44-.38,2.41,0,1.47,.26,2.58,.78,3.31,.52,.74,1.21,1.1,2.07,1.1,.63,0,1.18-.23,1.64-.68,.46-.45,.77-1.14,.93-2.05Z"/>
        <path class="cls-1" d="M338.25,246.41l3.4-10.74h1.25l3.61,10.74h-1.33l-1.02-3.25h-3.7l-.96,3.25h-1.23Zm2.53-4.41h3l-.92-2.97c-.28-.91-.49-1.66-.62-2.23-.11,.69-.27,1.37-.48,2.05l-.98,3.15Z"/>
      </g>
      <polygon class="cls-1" points="96.49 136.02 147.02 136.27 173.59 90.07 213.5 159.75 83.07 159.75 96.49 136.02"/>
      <polygon class="cls-1" points="100.46 128.72 173.59 0 271.45 171.3 229.33 171.24 173.59 74.24 142.58 128.72 100.46 128.72"/>
    </g>
  </g>
</svg>